<?xml version="1.0" standalone="no"?><!DOCTYPE svg PUBLIC "-//W3C//DTD SVG 1.1//EN" "http://www.w3.org/Graphics/SVG/1.1/DTD/svg11.dtd"><svg t="1615019182656" class="icon" viewBox="0 0 1024 1024" version="1.1" xmlns="http://www.w3.org/2000/svg" p-id="8551" xmlns:xlink="http://www.w3.org/1999/xlink" width="200" height="200"><defs><style type="text/css"></style></defs><path d="M807.04 992H229.6a142.72 142.72 0 0 1-142.56-142.56V174.56A142.72 142.72 0 0 1 229.6 32h48a30.08 30.08 0 1 1 0 60h-48a82.72 82.72 0 0 0-82.56 82.56v674.88a82.72 82.72 0 0 0 82.56 82.56h577.44a82.72 82.72 0 0 0 82.56-82.56V174.56a82.72 82.72 0 0 0-82.56-82.56h-48A30.08 30.08 0 0 1 758.4 32h48a142.72 142.72 0 0 1 142.56 142.56v674.88A142.72 142.72 0 0 1 807.04 992z" fill="#999999" p-id="8552"></path><path d="M608 92H428.32a30.08 30.08 0 1 1 0-60H608a30.08 30.08 0 0 1 0 60z m144.96 240H283.36a26.56 26.56 0 0 1-26.56-26.56v-6.88A26.56 26.56 0 0 1 283.36 272h469.92a26.56 26.56 0 0 1 26.56 26.56v6.88a26.56 26.56 0 0 1-26.56 25.92z m0 183.2H283.36a26.56 26.56 0 0 1-26.56-26.56v-6.88a26.56 26.56 0 0 1 26.56-26.56h469.92a26.56 26.56 0 0 1 26.56 26.56v6.88a26.56 26.56 0 0 1-26.56 25.92z m0 177.28H283.36a26.4 26.4 0 0 1-26.56-26.4v-7.04a26.56 26.56 0 0 1 26.56-26.56h469.92a26.56 26.56 0 0 1 26.56 26.56v7.04a26.4 26.4 0 0 1-26.56 25.76z" fill="#999999" p-id="8553"></path></svg>